REM DIRINDEX 1\2,1\3,1\4,1\5,1\6,1\7,1\8
REM DIRNAME cjc152,folder01,folder02,folder03,folder04,folder05,folder06,folder07
TITLE ""
FILE "02_Ch1_IntheMorning_Behavier.mp3" MP3
  TRACK 01 AUDIO
    TITLE "0:"
    INDEX 01 00:00:00
  TRACK 02 AUDIO
    TITLE "8:cjc152_0051"
    INDEX 01 00:00:35
  TRACK 03 AUDIO
    TITLE "0:"
    INDEX 01 00:03:31
  TRACK 04 AUDIO
    TITLE "8:cjc152_0052"
    INDEX 01 00:04:23
  TRACK 05 AUDIO
    TITLE "0:"
    INDEX 01 00:05:56
  TRACK 06 AUDIO
    TITLE "3:cjc152_0053"
    INDEX 01 00:06:49
  TRACK 07 AUDIO
    TITLE "0:"
    INDEX 01 00:07:70
  TRACK 08 AUDIO
    TITLE "3:cjc152_0054"
    INDEX 01 00:08:52
  TRACK 09 AUDIO
    TITLE "0:"
    INDEX 01 00:09:57
  TRACK 10 AUDIO
    TITLE "3:cjc152_0055"
    INDEX 01 00:11:58
  TRACK 11 AUDIO
    TITLE "0:"
    INDEX 01 00:13:30
  TRACK 12 AUDIO
    TITLE "3:cjc152_0056"
    INDEX 01 00:14:06
  TRACK 13 AUDIO
    TITLE "0:"
    INDEX 01 00:16:06
  TRACK 14 AUDIO
    TITLE "3:cjc152_0057"
    INDEX 01 00:18:01
  TRACK 15 AUDIO
    TITLE "0:"
    INDEX 01 00:19:18
  TRACK 16 AUDIO
    TITLE "3:cjc152_0058"
    INDEX 01 00:19:71
  TRACK 17 AUDIO
    TITLE "0:"
    INDEX 01 00:21:74
  TRACK 18 AUDIO
    TITLE "3:cjc152_0059"
    INDEX 01 00:23:65
  TRACK 19 AUDIO
    TITLE "0:"
    INDEX 01 00:25:21
  TRACK 20 AUDIO
    TITLE "3:cjc152_0060"
    INDEX 01 00:26:01
  TRACK 21 AUDIO
    TITLE "0:"
    INDEX 01 00:27:45
  TRACK 22 AUDIO
    TITLE "3:cjc152_0061"
    INDEX 01 00:29:36
  TRACK 23 AUDIO
    TITLE "0:"
    INDEX 01 00:30:71
  TRACK 24 AUDIO
    TITLE "3:cjc152_0062"
    INDEX 01 00:31:49
  TRACK 25 AUDIO
    TITLE "0:"
    INDEX 01 00:33:21
  TRACK 26 AUDIO
    TITLE "3:cjc152_0063"
    INDEX 01 00:35:10
  TRACK 27 AUDIO
    TITLE "0:"
    INDEX 01 00:36:54
  TRACK 28 AUDIO
    TITLE "3:cjc152_0064"
    INDEX 01 00:37:30
  TRACK 29 AUDIO
    TITLE "0:"
    INDEX 01 00:39:19
  TRACK 30 AUDIO
    TITLE "3:cjc152_0065"
    INDEX 01 00:41:12
  TRACK 31 AUDIO
    TITLE "0:"
    INDEX 01 00:43:62
  TRACK 32 AUDIO
    TITLE "3:cjc152_0066"
    INDEX 01 00:44:42
  TRACK 33 AUDIO
    TITLE "0:"
    INDEX 01 00:48:02
  TRACK 34 AUDIO
    TITLE "3:cjc152_0067"
    INDEX 01 00:49:70
  TRACK 35 AUDIO
    TITLE "0:"
    INDEX 01 00:51:44
  TRACK 36 AUDIO
    TITLE "3:cjc152_0068"
    INDEX 01 00:52:20
  TRACK 37 AUDIO
    TITLE "0:"
    INDEX 01 00:53:53
  TRACK 38 AUDIO
    TITLE "3:cjc152_0069"
    INDEX 01 00:55:44
  TRACK 39 AUDIO
    TITLE "0:"
    INDEX 01 00:56:71
  TRACK 40 AUDIO
    TITLE "3:cjc152_0070"
    INDEX 01 00:57:48
  TRACK 41 AUDIO
    TITLE "0:"
    INDEX 01 00:59:57
  TRACK 42 AUDIO
    TITLE "3:cjc152_0071"
    INDEX 01 01:01:50
  TRACK 43 AUDIO
    TITLE "0:"
    INDEX 01 01:02:71
  TRACK 44 AUDIO
    TITLE "3:cjc152_0072"
    INDEX 01 01:03:51
  TRACK 45 AUDIO
    TITLE "0:"
    INDEX 01 01:05:30
  TRACK 46 AUDIO
    TITLE "3:cjc152_0073"
    INDEX 01 01:07:19
  TRACK 47 AUDIO
    TITLE "0:"
    INDEX 01 01:09:03
  TRACK 48 AUDIO
    TITLE "3:cjc152_0074"
    INDEX 01 01:09:61
  TRACK 49 AUDIO
    TITLE "0:"
    INDEX 01 01:11:35
  TRACK 50 AUDIO
    TITLE "3:cjc152_0075"
    INDEX 01 01:13:30
  TRACK 51 AUDIO
    TITLE "0:"
    INDEX 01 01:15:39
  TRACK 52 AUDIO
    TITLE "3:cjc152_0076"
    INDEX 01 01:16:18
  TRACK 53 AUDIO
    TITLE "0:"
    INDEX 01 01:18:17
  TRACK 54 AUDIO
    TITLE "3:cjc152_0077"
    INDEX 01 01:20:08
  TRACK 55 AUDIO
    TITLE "0:"
    INDEX 01 01:21:25
  TRACK 56 AUDIO
    TITLE "3:cjc152_0078"
    INDEX 01 01:22:05
  TRACK 57 AUDIO
    TITLE "0:"
    INDEX 01 01:23:63
  TRACK 58 AUDIO
    TITLE "3:cjc152_0079"
    INDEX 01 01:25:57
  TRACK 59 AUDIO
    TITLE "0:"
    INDEX 01 01:26:68
  TRACK 60 AUDIO
    TITLE "3:cjc152_0080"
    INDEX 01 01:27:51
  TRACK 61 AUDIO
    TITLE "0:"
    INDEX 01 01:29:46
  TRACK 62 AUDIO
    TITLE "3:cjc152_0081"
    INDEX 01 01:31:39
  TRACK 63 AUDIO
    TITLE "0:"
    INDEX 01 01:32:62
  TRACK 64 AUDIO
    TITLE "3:cjc152_0082"
    INDEX 01 01:33:40
  TRACK 65 AUDIO
    TITLE "0:"
    INDEX 01 01:34:71
  TRACK 66 AUDIO
    TITLE "3:cjc152_0083"
    INDEX 01 01:36:62
  TRACK 67 AUDIO
    TITLE "0:"
    INDEX 01 01:38:06
  TRACK 68 AUDIO
    TITLE "3:cjc152_0084"
    INDEX 01 01:38:67
  TRACK 69 AUDIO
    TITLE "0:"
    INDEX 01 01:40:50
  TRACK 70 AUDIO
    TITLE "3:cjc152_0085"
    INDEX 01 01:42:37
  TRACK 71 AUDIO
    TITLE "0:"
    INDEX 01 01:43:66
  TRACK 72 AUDIO
    TITLE "3:cjc152_0086"
    INDEX 01 01:44:46
  TRACK 73 AUDIO
    TITLE "0:"
    INDEX 01 01:46:29
  TRACK 74 AUDIO
    TITLE "3:cjc152_0087"
    INDEX 01 01:48:16
  TRACK 75 AUDIO
    TITLE "0:"
    INDEX 01 01:50:39
  TRACK 76 AUDIO
    TITLE "3:cjc152_0088"
    INDEX 01 01:51:21
  TRACK 77 AUDIO
    TITLE "0:"
    INDEX 01 01:54:52
  TRACK 78 AUDIO
    TITLE "3:cjc152_0089"
    INDEX 01 01:56:45
  TRACK 79 AUDIO
    TITLE "0:"
    INDEX 01 01:57:60
  TRACK 80 AUDIO
    TITLE "3:cjc152_0090"
    INDEX 01 01:58:40
  TRACK 81 AUDIO
    TITLE "0:"
    INDEX 01 01:59:63
  TRACK 82 AUDIO
    TITLE "3:cjc152_0091"
    INDEX 01 02:01:39
  TRACK 83 AUDIO
    TITLE "0:"
    INDEX 01 02:02:64
  TRACK 84 AUDIO
    TITLE "3:cjc152_0092"
    INDEX 01 02:03:43
  TRACK 85 AUDIO
    TITLE "0:"
    INDEX 01 02:05:17
  TRACK 86 AUDIO
    TITLE "3:cjc152_0093"
    INDEX 01 02:07:10
  TRACK 87 AUDIO
    TITLE "0:"
    INDEX 01 02:08:31
  TRACK 88 AUDIO
    TITLE "3:cjc152_0094"
    INDEX 01 02:09:13
  TRACK 89 AUDIO
    TITLE "0:"
    INDEX 01 02:11:04
  TRACK 90 AUDIO
    TITLE "3:cjc152_0095"
    INDEX 01 02:12:70
  TRACK 91 AUDIO
    TITLE "0:"
    INDEX 01 02:14:33
  TRACK 92 AUDIO
    TITLE "3:cjc152_0096"
    INDEX 01 02:15:15
  TRACK 93 AUDIO
    TITLE "0:"
    INDEX 01 02:17:32
  TRACK 94 AUDIO
    TITLE "3:cjc152_0097"
    INDEX 01 02:19:23
  TRACK 95 AUDIO
    TITLE "0:"
    INDEX 01 02:20:60
  TRACK 96 AUDIO
    TITLE "3:cjc152_0098"
    INDEX 01 02:21:41
  TRACK 97 AUDIO
    TITLE "0:"
    INDEX 01 02:23:05
  TRACK 98 AUDIO
    TITLE "3:cjc152_0099"
    INDEX 01 02:24:71
  TRACK 99 AUDIO
    TITLE "0:"
    INDEX 01 02:27:32
  TRACK 100 AUDIO
    TITLE "3:cjc152_0100"
    INDEX 01 02:28:24
  TRACK 101 AUDIO
    TITLE "0:"
    INDEX 01 02:31:40
  TRACK 102 AUDIO
    TITLE "3:cjc152_0101"
    INDEX 01 02:33:31
  TRACK 103 AUDIO
    TITLE "0:"
    INDEX 01 02:34:32
  TRACK 104 AUDIO
    TITLE "3:cjc152_0102"
    INDEX 01 02:35:12
  TRACK 105 AUDIO
    TITLE "0:"
    INDEX 01 02:36:41
  TRACK 106 AUDIO
    TITLE "3:cjc152_0103"
    INDEX 01 02:38:34
  TRACK 107 AUDIO
    TITLE "0:"
    INDEX 01 02:39:61
  TRACK 108 AUDIO
    TITLE "3:cjc152_0104"
    INDEX 01 02:40:45
  TRACK 109 AUDIO
    TITLE "0:"
    INDEX 01 02:42:14
  TRACK 110 AUDIO
    TITLE "3:cjc152_0105"
    INDEX 01 02:44:17
  TRACK 111 AUDIO
    TITLE "0:"
    INDEX 01 02:45:71
  TRACK 112 AUDIO
    TITLE "3:cjc152_0106"
    INDEX 01 02:46:53
  TRACK 113 AUDIO
    TITLE "0:"
    INDEX 01 02:48:48
  TRACK 114 AUDIO
    TITLE "3:cjc152_0107"
    INDEX 01 02:50:41
  TRACK 115 AUDIO
    TITLE "0:"
    INDEX 01 02:51:72
  TRACK 116 AUDIO
    TITLE "3:cjc152_0108"
    INDEX 01 02:52:52
  TRACK 117 AUDIO
    TITLE "0:"
    INDEX 01 02:54:31
  TRACK 118 AUDIO
    TITLE "3:cjc152_0109"
    INDEX 01 02:56:24
  TRACK 119 AUDIO
    TITLE "0:"
    INDEX 01 02:57:61
  TRACK 120 AUDIO
    TITLE "3:cjc152_0110"
    INDEX 01 02:58:46
  TRACK 121 AUDIO
    TITLE "0:"
    INDEX 01 02:59:73
  TRACK 122 AUDIO
    TITLE "3:cjc152_0111"
    INDEX 01 03:01:64
  TRACK 123 AUDIO
    TITLE "0:"
    INDEX 01 03:03:61
  TRACK 124 AUDIO
    TITLE "3:cjc152_0112"
    INDEX 01 03:04:43
  TRACK 125 AUDIO
    TITLE "0:"
    INDEX 01 03:05:74
  TRACK 126 AUDIO
    TITLE "3:cjc152_0113"
    INDEX 01 03:07:67
  TRACK 127 AUDIO
    TITLE "0:"
    INDEX 01 03:10:26
  TRACK 128 AUDIO
    TITLE "3:cjc152_0114"
    INDEX 01 03:11:10
  TRACK 129 AUDIO
    TITLE "0:"
    INDEX 01 03:13:71
  TRACK 130 AUDIO
    TITLE "3:cjc152_0115"
    INDEX 01 03:15:66
  TRACK 131 AUDIO
    TITLE "0:"
    INDEX 01 03:17:38
  TRACK 132 AUDIO
    TITLE "3:cjc152_0116"
    INDEX 01 03:18:31
  TRACK 133 AUDIO
    TITLE "0:"
    INDEX 01 03:19:74
  TRACK 134 AUDIO
    TITLE "3:cjc152_0117"
    INDEX 01 03:21:67
  TRACK 135 AUDIO
    TITLE "0:"
    INDEX 01 03:23:40
  TRACK 136 AUDIO
    TITLE "3:cjc152_0118"
    INDEX 01 03:24:22
  TRACK 137 AUDIO
    TITLE "0:"
    INDEX 01 03:26:37
  TRACK 138 AUDIO
    TITLE "3:cjc152_0119"
    INDEX 01 03:28:30
  TRACK 139 AUDIO
    TITLE "0:"
    INDEX 01 03:29:55
  TRACK 140 AUDIO
    TITLE "3:cjc152_0120"
    INDEX 01 03:30:41
  TRACK 141 AUDIO
    TITLE "0:"
    INDEX 01 03:32:28
  TRACK 142 AUDIO
    TITLE "3:cjc152_0121"
    INDEX 01 03:34:17
  TRACK 143 AUDIO
    TITLE "0:"
    INDEX 01 03:35:69
  TRACK 144 AUDIO
    TITLE "3:cjc152_0122"
    INDEX 01 03:36:51
  TRACK 145 AUDIO
    TITLE "0:"
    INDEX 01 03:39:28
  TRACK 146 AUDIO
    TITLE "3:cjc152_0123"
    INDEX 01 03:41:19
  TRACK 147 AUDIO
    TITLE "0:"
    INDEX 01 03:43:02
  TRACK 148 AUDIO
    TITLE "3:cjc152_0124"
    INDEX 01 03:43:61
  TRACK 149 AUDIO
    TITLE "0:"
    INDEX 01 03:46:42
  TRACK 150 AUDIO
    TITLE "3:cjc152_0125"
    INDEX 01 03:48:35
  TRACK 151 AUDIO
    TITLE "0:"
    INDEX 01 03:50:47
  TRACK 152 AUDIO
    TITLE "3:cjc152_0126"
    INDEX 01 03:51:31
  TRACK 153 AUDIO
    TITLE "0:"
    INDEX 01 03:53:57
  TRACK 154 AUDIO
    TITLE "3:cjc152_0127"
    INDEX 01 03:55:48
  TRACK 155 AUDIO
    TITLE "0:"
    INDEX 01 03:58:07
  TRACK 156 AUDIO
    TITLE "3:cjc152_0128"
    INDEX 01 03:58:64
  TRACK 157 AUDIO
    TITLE "0:"
    INDEX 01 04:02:05
  TRACK 158 AUDIO
    TITLE "3:cjc152_0129"
    INDEX 01 04:03:71
  TRACK 159 AUDIO
    TITLE "0:"
    INDEX 01 04:05:51
  TRACK 160 AUDIO
    TITLE "3:cjc152_0130"
    INDEX 01 04:06:32
  TRACK 161 AUDIO
    TITLE "0:"
    INDEX 01 04:07:67
  TRACK 162 AUDIO
    TITLE "3:cjc152_0131"
    INDEX 01 04:09:60
  TRACK 163 AUDIO
    TITLE "0:"
    INDEX 01 04:11:39
  TRACK 164 AUDIO
    TITLE "3:cjc152_0132"
    INDEX 01 04:12:21
  TRACK 165 AUDIO
    TITLE "0:"
    INDEX 01 04:14:24
  TRACK 166 AUDIO
    TITLE "3:cjc152_0133"
    INDEX 01 04:16:25
  TRACK 167 AUDIO
    TITLE "0:"
    INDEX 01 04:18:40
  TRACK 168 AUDIO
    TITLE "3:cjc152_0134"
    INDEX 01 04:19:15
  TRACK 169 AUDIO
    TITLE "0:"
    INDEX 01 04:20:52
  TRACK 170 AUDIO
    TITLE "3:cjc152_0135"
    INDEX 01 04:22:41
  TRACK 171 AUDIO
    TITLE "0:"
    INDEX 01 04:24:42
  TRACK 172 AUDIO
    TITLE "3:cjc152_0136"
    INDEX 01 04:25:20
  TRACK 173 AUDIO
    TITLE "0:"
    INDEX 01 04:27:58
  TRACK 174 AUDIO
    TITLE "3:cjc152_0137"
    INDEX 01 04:29:51
  TRACK 175 AUDIO
    TITLE "0:"
    INDEX 01 04:32:18
  TRACK 176 AUDIO
    TITLE "3:cjc152_0138"
    INDEX 01 04:33:04
  TRACK 177 AUDIO
    TITLE "0:"
    INDEX 01 04:36:08
  TRACK 178 AUDIO
    TITLE "3:cjc152_0139"
    INDEX 01 04:38:01
  TRACK 179 AUDIO
    TITLE "0:"
    INDEX 01 04:39:26
  TRACK 180 AUDIO
    TITLE "3:cjc152_0140"
    INDEX 01 04:40:12
  TRACK 181 AUDIO
    TITLE "0:"
    INDEX 01 04:41:41
